<svg width="82" height="72" viewBox="0 0 82 72" fill="none" xmlns="http://www.w3.org/2000/svg">
<path d="M19.7614 59.6885C17.0838 59.6885 14.5592 59.2104 12.1876 58.2541C9.85429 57.2596 7.82697 55.8634 6.10567 54.0656C4.42261 52.2678 3.16032 50.1448 2.31879 47.6968L9.60566 44.4263C10.6767 46.7596 12.1494 48.5957 14.0237 49.9345C15.9362 51.2732 18.0401 51.9426 20.3351 51.9426C21.5592 51.9426 22.6111 51.7514 23.4909 51.3689C24.3706 50.9864 25.0592 50.47 25.5564 49.8197C26.0537 49.1312 26.3023 48.3279 26.3023 47.4099C26.3023 46.4153 25.9963 45.5738 25.3843 44.8853C24.7723 44.1585 23.816 43.5847 22.5155 43.164L14.1384 40.4099C10.7341 39.3006 8.17123 37.7323 6.44993 35.705C4.72862 33.6394 3.86797 31.1722 3.86797 28.3034C3.86797 25.7788 4.47999 23.5602 5.70403 21.6476C6.96632 19.7351 8.70675 18.2433 10.9253 17.1722C13.1821 16.1012 15.7641 15.5657 18.6712 15.5657C21.234 15.5657 23.6056 16.0056 25.7859 16.8854C27.9663 17.7651 29.8406 19.0083 31.4089 20.6149C33.0154 22.2214 34.2203 24.1531 35.0236 26.4099L27.7941 29.6804C26.9909 27.6913 25.7859 26.1422 24.1794 25.0329C22.5728 23.8853 20.7368 23.3116 18.6712 23.3116C17.4854 23.3116 16.4335 23.5028 15.5155 23.8853C14.5974 24.2679 13.8898 24.8225 13.3925 25.5493C12.8953 26.2378 12.6466 27.0411 12.6466 27.9591C12.6466 28.9536 12.9718 29.8334 13.622 30.5984C14.2723 31.3252 15.2477 31.899 16.5483 32.3197L24.7532 34.9591C28.1958 36.0684 30.7586 37.6175 32.4417 39.6066C34.163 41.5957 35.0236 44.0246 35.0236 46.8935C35.0236 49.3798 34.3733 51.5984 33.0728 53.5492C31.7723 55.4618 29.9745 56.9727 27.6794 58.082C25.4226 59.153 22.7832 59.6885 19.7614 59.6885Z" fill="#FAFAFA"/>
<circle cx="50.7504" cy="39.4169" r="12.7504" fill="#11B5E4"/>
<line x1="72.1734" y1="17.939" x2="72.1734" y2="8.75578" stroke="#FAFAFA" stroke-width="0.75272"/>
<path d="M68.103 57.3727V14.627H76.9964V57.3727H68.103Z" fill="#FAFAFA"/>
<line x1="72.1734" y1="63.2441" x2="72.1734" y2="54.061" stroke="#FAFAFA" stroke-width="0.75272"/>
</svg>
